<?xml version="1.0" encoding="UTF-8"?>
<svg width="202.031" height="157.167" viewBox="0 0 202.031 157.167" fill="none" xmlns="http://www.w3.org/2000/svg">
  <title>ALFA logo vectorized from GLB projection</title>
  <path d="M 0.183 153.964 L 0.408 153.418 L 0.987 152.224 L 2.387 149.411 L 4.494 145.201 L 7.183 139.841 L 10.331 133.579 L 13.811 126.662 L 17.500 119.339 L 21.273 111.858 L 25.003 104.466 L 28.567 97.413 L 31.840 90.945 L 34.696 85.313 L 35.487 83.754 L 36.444 81.864 L 37.549 79.680 L 38.782 77.243 L 40.122 74.590 L 41.551 71.761 L 43.048 68.795 L 44.595 65.730 L 46.171 62.606 L 47.757 59.462 L 49.333 56.336 L 50.880 53.268 L 55.480 44.139 L 59.552 36.065 L 63.121 28.997 L 66.214 22.883 L 68.856 17.673 L 71.074 13.313 L 72.893 9.755 L 74.341 6.944 L 75.443 4.831 L 76.229 3.357 L 76.739 2.448 L 77.098 1.918 L 77.463 1.694 L 77.697 1.580 L 77.953 1.492 L 78.227 1.439 L 78.512 1.429 L 78.797 1.465 L 79.068 1.544 L 79.317 1.657 L 79.543 1.797 L 79.746 1.957 L 79.933 2.132 L 80.151 2.367 L 80.355 2.693 L 80.653 3.227 L 81.071 4.003 L 81.606 5.015 L 82.249 6.244 L 82.991 7.672 L 83.820 9.278 L 84.727 11.042 L 85.701 12.945 L 86.732 14.965 L 87.808 17.083 L 88.920 19.278 L 90.119 21.649 L 91.451 24.282 L 92.895 27.133 L 94.426 30.158 L 96.025 33.314 L 97.668 36.556 L 99.333 39.841 L 100.997 43.125 L 102.639 46.364 L 104.237 49.513 L 105.768 52.530 L 107.209 55.370 L 117.472 75.588 L 126.253 92.897 L 133.664 107.519 L 139.816 119.675 L 144.819 129.588 L 148.784 137.477 L 151.824 143.567 L 154.049 148.079 L 155.572 151.238 L 156.509 153.278 L 156.998 154.493 L 157.172 155.498 L 156.596 156.092 L 156.167 156.306 L 155.721 156.424 L 155.203 156.503 L 154.550 156.563 L 153.717 156.610 L 152.666 156.649 L 151.362 156.681 L 149.773 156.708 L 147.868 156.730 L 145.617 156.750 L 142.990 156.769 L 140.637 156.783 L 138.563 156.791 L 136.755 156.792 L 135.194 156.787 L 133.866 156.774 L 132.752 156.753 L 131.836 156.723 L 131.097 156.685 L 130.511 156.635 L 130.040 156.567 L 129.593 156.448 L 129.124 156.154 L 128.621 155.232 L 127.686 153.424 L 126.221 150.555 L 124.243 146.663 L 121.776 141.788 L 118.841 135.976 L 115.459 129.270 L 111.652 121.712 L 107.444 113.347 L 102.855 104.219 L 97.908 94.371 L 92.625 83.848 L 90.724 80.068 L 88.888 76.434 L 87.137 72.980 L 85.487 69.739 L 83.955 66.747 L 82.561 64.037 L 81.321 61.645 L 80.254 59.605 L 79.377 57.953 L 78.712 56.727 L 78.415 56.204 L 78.370 56.273 L 77.928 57.061 L 77.244 58.330 L 76.349 60.024 L 75.262 62.106 L 74.002 64.540 L 72.586 67.291 L 71.034 70.322 L 69.362 73.600 L 67.590 77.090 L 65.735 80.756 L 63.815 84.564 L 61.220 89.724 L 58.942 94.267 L 56.964 98.227 L 55.270 101.637 L 53.845 104.531 L 52.672 106.941 L 51.736 108.900 L 51.020 110.439 L 50.512 111.587 L 50.313 112.082 L 50.627 112.115 L 51.528 112.171 L 52.770 112.221 L 54.396 112.265 L 56.452 112.304 L 58.987 112.339 L 62.047 112.373 L 65.683 112.407 L 69.944 112.442 L 91.075 112.608 L 101.637 133.636 L 103.657 137.664 L 105.401 141.153 L 106.887 144.139 L 108.132 146.664 L 109.155 148.765 L 109.975 150.484 L 110.611 151.859 L 111.083 152.936 L 111.412 153.762 L 111.622 154.405 L 111.729 154.993 L 111.641 155.564 L 111.373 155.990 L 111.043 156.300 L 110.615 156.511 L 110.150 156.631 L 109.606 156.706 L 108.922 156.758 L 108.041 156.794 L 106.919 156.819 L 105.514 156.834 L 103.789 156.843 L 101.705 156.846 L 99.225 156.847 L 97.215 156.845 L 95.435 156.839 L 93.874 156.827 L 92.517 156.811 L 91.354 156.789 L 90.371 156.761 L 89.554 156.725 L 88.887 156.682 L 88.350 156.629 L 87.910 156.558 L 87.484 156.438 L 87.052 156.163 L 86.830 155.805 L 86.642 155.467 L 86.385 154.990 L 86.059 154.374 L 85.668 153.628 L 85.219 152.764 L 84.716 151.795 L 84.168 150.731 L 83.580 149.585 L 82.958 148.370 L 82.309 147.097 L 81.640 145.780 L 80.971 144.465 L 80.320 143.197 L 79.693 141.986 L 79.096 140.845 L 78.537 139.787 L 78.022 138.824 L 77.559 137.968 L 77.153 137.234 L 76.814 136.635 L 76.551 136.190 L 76.519 136.138 L 76.067 136.072 L 73.897 135.965 L 70.644 135.879 L 66.603 135.818 L 62.041 135.781 L 57.221 135.769 L 52.405 135.781 L 47.855 135.818 L 43.836 135.879 L 40.613 135.965 L 38.485 136.072 L 38.118 136.128 L 38.095 136.167 L 37.838 136.636 L 37.505 137.260 L 37.103 138.021 L 36.640 138.906 L 36.123 139.903 L 35.559 140.998 L 34.954 142.177 L 34.315 143.430 L 33.649 144.742 L 32.962 146.101 L 27.627 156.681 L 14.353 156.769 L 11.108 156.790 L 8.412 156.802 L 6.213 156.797 L 4.460 156.768 L 3.095 156.707 L 2.046 156.601 L 1.216 156.418 L 0.481 156.046 L 0.000 155.318 L 0.002 154.545 L 0.183 153.964 Z M 9.427 137.047 L 9.427 137.047 L 9.427 137.047 L 9.427 137.047 L 9.427 137.047 Z M 64.492 82.517 L 64.492 82.517 L 64.492 82.517 L 64.492 82.517 L 64.492 82.517 Z M 58.186 40.440 L 58.186 40.440 L 58.186 40.440 L 58.186 40.440 L 58.186 40.440 Z M 75.746 61.034 L 75.746 61.034 L 75.746 61.034 L 75.746 61.034 L 75.746 61.034 Z M 81.279 4.540 L 81.279 4.540 L 81.279 4.540 L 81.279 4.540 L 81.279 4.540 Z M 81.058 4.658 L 81.058 4.658 L 81.058 4.658 L 81.058 4.658 Z M 88.082 18.324 L 88.082 18.324 L 88.082 18.324 L 88.082 18.324 L 88.082 18.324 Z M 107.449 145.431 L 107.449 145.431 L 107.449 145.431 L 107.449 145.431 L 107.449 145.431 Z M 104.469 139.438 L 104.469 139.438 L 104.469 139.438 L 104.469 139.438 L 104.469 139.438 Z M 111.185 153.374 L 111.185 153.374 L 111.185 153.374 L 111.185 153.374 Z M 154.750 149.687 L 154.750 149.687 L 154.750 149.687 L 154.750 149.687 L 154.750 149.687 Z M 96.488 0.880 L 96.903 0.664 L 97.333 0.542 L 97.825 0.459 L 98.434 0.394 L 99.204 0.341 L 100.168 0.296 L 101.358 0.255 L 102.802 0.219 L 104.527 0.185 L 106.560 0.151 L 108.928 0.116 L 111.383 0.083 L 113.519 0.055 L 115.362 0.033 L 116.936 0.016 L 118.269 0.005 L 119.384 0.000 L 120.308 0.000 L 121.067 0.006 L 121.687 0.017 L 122.196 0.033 L 122.617 0.056 L 123.399 0.119 L 123.848 0.693 L 124.193 1.271 L 124.664 2.112 L 125.271 3.231 L 126.007 4.610 L 126.860 6.228 L 127.818 8.062 L 128.870 10.091 L 130.003 12.290 L 131.205 14.637 L 132.465 17.109 L 133.769 19.682 L 135.106 22.325 L 136.460 25.001 L 137.815 27.679 L 139.155 30.325 L 140.464 32.908 L 141.725 35.394 L 142.921 37.752 L 144.036 39.948 L 145.053 41.950 L 145.956 43.725 L 146.729 45.241 L 147.354 46.466 L 151.162 53.937 L 155.915 63.288 L 161.369 74.037 L 167.281 85.705 L 173.408 97.809 L 179.507 109.870 L 185.334 121.406 L 190.648 131.936 L 195.204 140.979 L 198.759 148.055 L 201.073 152.686 L 202.031 154.656 L 201.974 155.099 L 201.903 155.311 L 201.823 155.476 L 201.737 155.617 L 201.647 155.743 L 201.551 155.861 L 201.450 155.974 L 201.343 156.083 L 201.230 156.189 L 201.110 156.291 L 200.985 156.391 L 200.821 156.511 L 200.506 156.685 L 200.109 156.820 L 199.659 156.914 L 199.121 156.984 L 198.459 157.038 L 197.636 157.080 L 196.624 157.112 L 195.392 157.135 L 193.915 157.151 L 192.164 157.162 L 190.114 157.167 L 187.738 157.167 L 186.131 157.165 L 184.576 157.159 L 183.087 157.151 L 181.681 157.140 L 180.371 157.126 L 179.173 157.110 L 178.103 157.092 L 177.173 157.072 L 176.399 157.050 L 175.791 157.027 L 175.344 157.001 L 174.878 156.943 L 174.413 156.635 L 174.069 156.242 L 173.732 155.763 L 173.342 155.140 L 172.876 154.345 L 172.324 153.357 L 171.677 152.163 L 170.926 150.746 L 170.063 149.095 L 169.082 147.195 L 167.975 145.033 L 166.736 142.598 L 164.248 137.695 L 161.756 132.785 L 159.242 127.832 L 156.691 122.803 L 154.084 117.665 L 151.406 112.385 L 148.638 106.930 L 145.765 101.266 L 142.770 95.360 L 139.635 89.179 L 136.343 82.690 L 132.879 75.859 L 131.158 72.467 L 129.441 69.083 L 127.747 65.745 L 126.095 62.491 L 124.505 59.361 L 122.997 56.393 L 121.590 53.624 L 120.304 51.095 L 119.158 48.843 L 118.172 46.907 L 117.367 45.326 L 116.760 44.138 L 113.113 37.000 L 109.862 30.617 L 106.992 24.961 L 104.491 20.005 L 102.344 15.721 L 100.537 12.079 L 99.057 9.053 L 97.888 6.611 L 97.016 4.724 L 96.422 3.351 L 96.068 2.390 L 95.943 1.454 L 96.488 0.880 Z M 101.501 13.870 L 101.501 13.870 L 101.501 13.870 L 101.501 13.870 L 101.501 13.870 Z M 98.533 7.803 L 98.533 7.803 L 98.533 7.803 L 98.533 7.803 L 98.533 7.803 Z M 127.678 9.422 L 127.678 9.422 L 127.678 9.422 L 127.678 9.422 Z M 118.948 47.732 L 118.948 47.732 L 118.948 47.732 L 118.948 47.732 L 118.948 47.732 Z M 115.219 40.425 L 115.219 40.425 L 115.219 40.425 L 115.219 40.425 L 115.219 40.425 Z M 146.283 44.514 L 146.283 44.514 L 146.283 44.514 L 146.283 44.514 L 146.283 44.514 Z M 156.056 119.895 L 156.056 119.895 L 156.056 119.895 L 156.056 119.895 L 156.056 119.895 Z M 201.487 153.692 L 201.487 153.692 L 201.487 153.692 L 201.487 153.692 L 201.487 153.692 Z" fill="#FFFFFF" fill-rule="evenodd"/>
</svg>
