<svg xmlns="http://www.w3.org/2000/svg" width="1024" height="1024" viewBox="0 0 2304 2304" fill="none">
  <g opacity="0.82">
    <path d="M-1.2 1428.75H2304" stroke="#2D2D2D" stroke-width="1.1"/>
    <path d="M-1.2 1378.75H2304" stroke="#2D2D2D" stroke-width="1.1"/>
    <path d="M-1.2 1448.75H2304" stroke="#2D2D2D" stroke-width="1.1"/>
    <path d="M-1.2 1396.75H2304" stroke="#2D2D2D" stroke-width="1.1"/>
    <path d="M-1.2 1282.75H2304" stroke="#2D2D2D" stroke-width="1.1"/>
    <path d="M-1.2 604.75H2304" stroke="#2D2D2D" stroke-width="2.2"/>
    <path d="M-1.2 910.75H2304" stroke="#2D2D2D" stroke-width="1.1"/>
    <path d="M676 -29.53V2333.3" stroke="#2D2D2D" stroke-width="1.11"/>
    <path d="M1628 -29.53V2333.3" stroke="#2D2D2D" stroke-width="0.67"/>
    <path d="M631.28 4.09L1956.77 2299.91" stroke="#2D2D2D" stroke-width="0.69"/>
    <path d="M611.28 4.09L1936.77 2299.91" stroke="#2D2D2D" stroke-width="0.69"/>
    <path d="M651.28 4.09L1976.77 2299.91" stroke="#2D2D2D" stroke-width="0.69"/>
    <path d="M805.57 4.09L2131.06 2299.91" stroke="#2D2D2D" stroke-width="0.69"/>
    <path d="M785.57 4.09L2111.06 2299.91" stroke="#2D2D2D" stroke-width="0.69"/>
    <path d="M825.57 4.09L2151.06 2299.91" stroke="#2D2D2D" stroke-width="0.69"/>
    <path d="M1674.05 4.09L348.56 2299.91" stroke="#2D2D2D" stroke-width="0.69"/>
    <path d="M1654.05 4.09L328.56 2299.91" stroke="#2D2D2D" stroke-width="0.69"/>
    <path d="M1694.05 4.09L368.56 2299.91" stroke="#2D2D2D" stroke-width="0.69"/>
    <path d="M1498.05 4.09L172.56 2299.91" stroke="#2D2D2D" stroke-width="0.69"/>
    <path d="M1518.05 4.09L192.56 2299.91" stroke="#2D2D2D" stroke-width="0.69"/>
    <path d="M1478.05 4.09L152.56 2299.91" stroke="#2D2D2D" stroke-width="0.69"/>
    <path d="M1152 1704.14V605.06" stroke="#404040" stroke-width="1.42" stroke-dasharray="4.26 4.26"/>
    <path d="M1701.77 1152H602.23" stroke="#404040" stroke-width="1.42" stroke-dasharray="4.26 4.26"/>
    <path d="M1628.92 879.98L677.08 1429.52" stroke="#343434" stroke-width="1.42" stroke-dasharray="4.26 4.26"/>
    <path d="M677.08 879.98L1628.92 1429.52" stroke="#343434" stroke-width="1.42" stroke-dasharray="4.26 4.26"/>
    <path d="M1152 602.23C1455.42 602.23 1701.77 848.58 1701.77 1152C1701.77 1455.42 1455.42 1701.77 1152 1701.77C848.58 1701.77 602.23 1455.42 602.23 1152C602.23 848.58 848.58 602.23 1152 602.23Z" stroke="#262626" stroke-width="0.95" stroke-dasharray="3.79 3.79"/>
    <path d="M1152 878.86C1302.75 878.86 1425.14 1001.25 1425.14 1152C1425.14 1302.75 1302.75 1425.14 1152 1425.14C1001.25 1425.14 878.86 1302.75 878.86 1152C878.86 1001.25 1001.25 878.86 1152 878.86Z" stroke="#303030" stroke-width="1.41" stroke-dasharray="3.77 3.77"/>
    <circle cx="1152" cy="1152" r="116" stroke="white" stroke-opacity="0.46" stroke-width="2"/>
    <circle cx="1152" cy="1152" r="220" stroke="white" stroke-opacity="0.18" stroke-width="1.5"/>
    <path d="M1152 1010V1094" stroke="white" stroke-opacity="0.58" stroke-width="3" stroke-linecap="round"/>
    <path d="M1152 1210V1294" stroke="white" stroke-opacity="0.58" stroke-width="3" stroke-linecap="round"/>
    <path d="M1010 1152H1094" stroke="white" stroke-opacity="0.58" stroke-width="3" stroke-linecap="round"/>
    <path d="M1210 1152H1294" stroke="white" stroke-opacity="0.58" stroke-width="3" stroke-linecap="round"/>
    <path d="M1118 1118L1186 1186" stroke="white" stroke-opacity="0.2" stroke-width="1.5"/>
    <path d="M1186 1118L1118 1186" stroke="white" stroke-opacity="0.2" stroke-width="1.5"/>
    <path d="M930 1426H1374" stroke="white" stroke-opacity="0.32" stroke-width="2"/>
    <path d="M992 1478H1312" stroke="white" stroke-opacity="0.16" stroke-width="1.5"/>
  </g>
</svg>
